<svg width="1200" height="560" viewBox="0 0 1200 560" xmlns="http://www.w3.org/2000/svg" data-wpl-fallback="true">
  <!-- wpl:fallback — generic Bay Area hero, replace via Sage page-brief pipeline -->
  <!-- Background gradient — assurgit brand blue -->
  <defs>
    <linearGradient id="bg" x1="0" y1="0" x2="1" y2="1">
      <stop offset="0%" stop-color="#0a0f1e"/>
      <stop offset="60%" stop-color="#1e3a8a"/>
      <stop offset="100%" stop-color="#2563eb"/>
    </linearGradient>
    <linearGradient id="grid" x1="0" y1="0" x2="0" y2="1">
      <stop offset="0%" stop-color="#3b82f6" stop-opacity="0.18"/>
      <stop offset="100%" stop-color="#3b82f6" stop-opacity="0"/>
    </linearGradient>
  </defs>
  <rect width="1200" height="560" fill="url(#bg)"/>

  <!-- Soft glow orbs -->
  <circle cx="220" cy="160" r="200" fill="#60a5fa" opacity="0.18"/>
  <circle cx="980" cy="420" r="240" fill="#3b82f6" opacity="0.22"/>

  <!-- Stylized Bay Area skyline -->
  <g opacity="0.85" fill="#0b1228">
    <!-- Bridge towers + cables -->
    <path d="M 80 460 L 80 320 L 110 320 L 110 460 Z"/>
    <path d="M 290 460 L 290 320 L 320 320 L 320 460 Z"/>
    <path d="M 95 320 Q 200 240 305 320" stroke="#1e3a8a" stroke-width="3" fill="none"/>
    <path d="M 95 460 L 305 460" stroke="#1e3a8a" stroke-width="6"/>
    <!-- Bridge cable hangers -->
    <line x1="135" y1="304" x2="135" y2="460" stroke="#1e3a8a" stroke-width="1.5"/>
    <line x1="170" y1="285" x2="170" y2="460" stroke="#1e3a8a" stroke-width="1.5"/>
    <line x1="205" y1="277" x2="205" y2="460" stroke="#1e3a8a" stroke-width="1.5"/>
    <line x1="240" y1="285" x2="240" y2="460" stroke="#1e3a8a" stroke-width="1.5"/>
    <line x1="275" y1="304" x2="275" y2="460" stroke="#1e3a8a" stroke-width="1.5"/>

    <!-- Skyline buildings -->
    <rect x="380" y="380" width="60" height="80"/>
    <rect x="450" y="340" width="55" height="120"/>
    <rect x="515" y="300" width="48" height="160"/>
    <rect x="573" y="265" width="44" height="195"/>
    <rect x="627" y="230" width="58" height="230"/>
    <polygon points="656,230 656,200 640,178 624,230"/>
    <rect x="695" y="290" width="50" height="170"/>
    <rect x="755" y="320" width="55" height="140"/>
    <rect x="820" y="360" width="60" height="100"/>
    <rect x="890" y="335" width="48" height="125"/>
    <rect x="948" y="310" width="50" height="150"/>
    <rect x="1008" y="345" width="55" height="115"/>
    <rect x="1073" y="375" width="58" height="85"/>

    <!-- Building windows (small dots) -->
    <g fill="#fef3c7" opacity="0.8">
      <rect x="465" y="360" width="3" height="3"/><rect x="475" y="360" width="3" height="3"/><rect x="485" y="360" width="3" height="3"/>
      <rect x="465" y="380" width="3" height="3"/><rect x="475" y="380" width="3" height="3"/>
      <rect x="528" y="320" width="3" height="3"/><rect x="540" y="320" width="3" height="3"/><rect x="552" y="320" width="3" height="3"/>
      <rect x="528" y="345" width="3" height="3"/><rect x="552" y="345" width="3" height="3"/>
      <rect x="585" y="285" width="3" height="3"/><rect x="600" y="285" width="3" height="3"/>
      <rect x="640" y="260" width="3" height="3"/><rect x="660" y="260" width="3" height="3"/>
      <rect x="640" y="285" width="3" height="3"/><rect x="660" y="285" width="3" height="3"/><rect x="675" y="285" width="3" height="3"/>
      <rect x="710" y="320" width="3" height="3"/><rect x="725" y="320" width="3" height="3"/>
      <rect x="770" y="350" width="3" height="3"/><rect x="790" y="350" width="3" height="3"/>
      <rect x="900" y="365" width="3" height="3"/><rect x="920" y="365" width="3" height="3"/>
      <rect x="958" y="340" width="3" height="3"/><rect x="978" y="340" width="3" height="3"/>
      <rect x="1018" y="375" width="3" height="3"/><rect x="1043" y="375" width="3" height="3"/>
    </g>
  </g>

  <!-- Bay water — bottom strip -->
  <rect x="0" y="460" width="1200" height="100" fill="#0b1228"/>
  <path d="M 0 470 Q 150 462 300 470 T 600 470 T 900 470 T 1200 470 L 1200 460 L 0 460 Z" fill="#1e3a8a" opacity="0.6"/>

  <!-- Grid overlay -->
  <rect x="0" y="0" width="1200" height="560" fill="url(#grid)"/>

  <!-- Wordmark / tagline -->
  <g font-family="system-ui, -apple-system, sans-serif" fill="#ffffff">
    <text x="80" y="120" font-size="22" font-weight="700" letter-spacing="6" opacity="0.7">ASSURGIT</text>
    <text x="80" y="200" font-size="64" font-weight="900" letter-spacing="-1.5">Local SEO + Websites</text>
    <text x="80" y="250" font-size="32" font-weight="400" opacity="0.85">for Bay Area service businesses</text>
    <text x="80" y="510" font-size="14" font-weight="600" letter-spacing="2" opacity="0.55">PAGE 1 IN 90 DAYS · OR YOUR FOURTH MONTH IS FREE</text>
  </g>
</svg>
